<svg width="14" height="14" viewBox="0 0 14 14" fill="none" xmlns="http://www.w3.org/2000/svg">
<path d="M0.5 6.83333C0.5 3.84777 0.5 2.35499 1.4275 1.4275C2.35499 0.5 3.84777 0.5 6.83333 0.5C9.8189 0.5 11.3117 0.5 12.2392 1.4275C13.1667 2.35499 13.1667 3.84777 13.1667 6.83333C13.1667 9.8189 13.1667 11.3117 12.2392 12.2392C11.3117 13.1667 9.8189 13.1667 6.83333 13.1667C3.84777 13.1667 2.35499 13.1667 1.4275 12.2392C0.5 11.3117 0.5 9.8189 0.5 6.83333Z" stroke="white" stroke-linejoin="round"/>
<path d="M5.5 9.16602C5.5 9.7183 5.05228 10.166 4.5 10.166C3.94772 10.166 3.5 9.7183 3.5 9.16602C3.5 8.61373 3.94772 8.16602 4.5 8.16602C5.05228 8.16602 5.5 8.61373 5.5 9.16602Z" stroke="white"/>
<path d="M10.1665 4.5C10.1665 3.94772 9.71879 3.5 9.1665 3.5C8.61422 3.5 8.1665 3.94772 8.1665 4.5C8.1665 5.05228 8.61422 5.5 9.1665 5.5C9.71879 5.5 10.1665 5.05228 10.1665 4.5Z" stroke="white"/>
<path d="M4.5 8.16667L4.5 3.5" stroke="white" stroke-linecap="round"/>
<path d="M9.1665 5.49935V10.166" stroke="white" stroke-linecap="round"/>
</svg>
