<svg width="16" height="16" viewBox="0 0 16 16" fill="none" xmlns="http://www.w3.org/2000/svg">
<g clip-path="url(#clip0_23828_2550)">
<path fill-rule="evenodd" clip-rule="evenodd" d="M6.97325 0.833008H9.02658C10.0953 0.833008 10.9333 0.833008 11.6026 0.896341C12.2846 0.961674 12.8433 1.09634 13.3359 1.39767C13.8519 1.71383 14.2858 2.14766 14.6019 2.66367C14.9033 3.15567 15.0379 3.71501 15.1033 4.39701C15.1666 5.06634 15.1666 5.90434 15.1666 6.97367V7.68501C15.1666 8.44567 15.1666 9.04234 15.1333 9.52434C15.0999 10.0143 15.0313 10.4223 14.8746 10.7997C14.6819 11.2648 14.3996 11.6874 14.0436 12.0434C13.6876 12.3993 13.265 12.6817 12.7999 12.8743C12.2633 13.097 11.6526 13.1463 10.8153 13.161C10.6086 13.1603 10.4019 13.1683 10.1959 13.185C10.0639 13.1997 10.0126 13.221 9.98258 13.2383C9.95125 13.257 9.90792 13.2903 9.83325 13.393C9.75258 13.5037 9.66125 13.657 9.51592 13.9023L9.15458 14.513C8.63925 15.3843 7.36125 15.3843 6.84525 14.513L6.48392 13.9023C6.38513 13.7283 6.27927 13.5584 6.16658 13.393C6.09192 13.2903 6.04858 13.257 6.01725 13.2383C5.98725 13.221 5.93592 13.1997 5.80392 13.185C5.66259 13.1697 5.47725 13.165 5.18392 13.1603C4.34725 13.1463 3.73659 13.097 3.19992 12.8743C2.73481 12.6817 2.31221 12.3993 1.95624 12.0434C1.60027 11.6874 1.3179 11.2648 1.12525 10.7997C0.968585 10.4223 0.899919 10.0143 0.865919 9.52434C0.833252 9.04234 0.833252 8.44567 0.833252 7.68434V6.97367C0.833252 5.90434 0.833252 5.06701 0.896585 4.39701C0.961919 3.71501 1.09659 3.15567 1.39792 2.66367C1.71407 2.14766 2.1479 1.71383 2.66392 1.39767C3.15592 1.09634 3.71525 0.961674 4.39725 0.896341C5.06659 0.833008 5.90459 0.833008 6.97392 0.833008M4.49258 1.89234C3.88325 1.95034 3.49592 2.06101 3.18659 2.25034C2.80506 2.48406 2.4843 2.80481 2.25059 3.18634C2.06125 3.49567 1.95059 3.88301 1.89259 4.49301C1.83392 5.10901 1.83325 5.89967 1.83325 7.00034V7.66701C1.83325 8.45034 1.83325 9.01301 1.86392 9.45701C1.89392 9.89634 1.95125 10.183 2.04925 10.4177C2.33682 11.1119 2.88837 11.6634 3.58259 11.951C3.92592 12.0937 4.36458 12.147 5.20192 12.1617H5.22259C5.48792 12.1663 5.72059 12.1703 5.91392 12.1917C6.12125 12.215 6.32458 12.261 6.51992 12.3743C6.71325 12.4877 6.85325 12.6377 6.97459 12.8043C7.08725 12.959 7.20258 13.1543 7.33325 13.375L7.70592 14.0043C7.73708 14.0542 7.78041 14.0953 7.83184 14.1238C7.88327 14.1524 7.94111 14.1673 7.99992 14.1673C8.05872 14.1673 8.11656 14.1524 8.16799 14.1238C8.21943 14.0953 8.26276 14.0542 8.29392 14.0043L8.66658 13.375C8.79725 13.1543 8.91325 12.959 9.02525 12.8043C9.14658 12.6377 9.28658 12.487 9.47992 12.3743C9.67525 12.261 9.87858 12.2143 10.0859 12.1917C10.2793 12.1703 10.5119 12.1663 10.7773 12.1617H10.7986C11.6353 12.147 12.0739 12.0937 12.4173 11.951C13.1115 11.6634 13.663 11.1119 13.9506 10.4177C14.0486 10.183 14.1059 9.89634 14.1359 9.45701C14.1666 9.01301 14.1666 8.45034 14.1666 7.66701V7.00034C14.1666 5.89967 14.1666 5.10901 14.1073 4.49234C14.0493 3.88301 13.9386 3.49567 13.7493 3.18634C13.5156 2.80513 13.1951 2.48462 12.8139 2.25101C12.5046 2.06167 12.1173 1.95101 11.5073 1.89301C10.8913 1.83434 10.1006 1.83367 8.99992 1.83367H6.99992C5.89925 1.83367 5.10858 1.83367 4.49192 1.89301M4.83325 5.99967C4.83325 5.86707 4.88593 5.73989 4.9797 5.64612C5.07347 5.55235 5.20064 5.49967 5.33325 5.49967H10.6666C10.7992 5.49967 10.9264 5.55235 11.0201 5.64612C11.1139 5.73989 11.1666 5.86707 11.1666 5.99967C11.1666 6.13228 11.1139 6.25946 11.0201 6.35323C10.9264 6.447 10.7992 6.49967 10.6666 6.49967H5.33325C5.20064 6.49967 5.07347 6.447 4.9797 6.35323C4.88593 6.25946 4.83325 6.13228 4.83325 5.99967ZM4.83325 8.33301C4.83325 8.2004 4.88593 8.07322 4.9797 7.97945C5.07347 7.88569 5.20064 7.83301 5.33325 7.83301H8.99992C9.13253 7.83301 9.2597 7.88569 9.35347 7.97945C9.44724 8.07322 9.49992 8.2004 9.49992 8.33301C9.49992 8.46562 9.44724 8.59279 9.35347 8.68656C9.2597 8.78033 9.13253 8.83301 8.99992 8.83301H5.33325C5.20064 8.83301 5.07347 8.78033 4.9797 8.68656C4.88593 8.59279 4.83325 8.46562 4.83325 8.33301Z" fill="#454F5B"/>
</g>
<defs>
<clipPath id="clip0_23828_2550">
<rect width="16" height="16" fill="white"/>
</clipPath>
</defs>
</svg>
