<svg width="15" height="15" viewBox="0 0 15 15" fill="none" xmlns="http://www.w3.org/2000/svg">
<path d="M1.1665 7.16699C4.1665 7.16699 7.1665 4.16699 7.1665 1.16699C7.1665 4.16699 10.1665 7.16699 13.1665 7.16699C10.1665 7.16699 7.1665 10.167 7.1665 13.167C7.1665 10.167 4.1665 7.16699 1.1665 7.16699Z" stroke="white" stroke-linejoin="round"/>
<path d="M0.5 12.1667C1.05556 12.1667 2.16667 11.0556 2.16667 10.5C2.16667 11.0556 3.27778 12.1667 3.83333 12.1667C3.27778 12.1667 2.16667 13.2778 2.16667 13.8333C2.16667 13.2778 1.05556 12.1667 0.5 12.1667Z" stroke="white" stroke-linejoin="round"/>
<path d="M9.83301 2.5C10.4997 2.5 11.833 1.16667 11.833 0.5C11.833 1.16667 13.1663 2.5 13.833 2.5C13.1663 2.5 11.833 3.83333 11.833 4.5C11.833 3.83333 10.4997 2.5 9.83301 2.5Z" stroke="white" stroke-linejoin="round"/>
</svg>
